<?xml version="1.0" encoding="utf-8"?>
<!-- Generator: Adobe Illustrator 23.0.3, SVG Export Plug-In . SVG Version: 6.00 Build 0)  -->
<svg version="1.1" id="Icons" xmlns="http://www.w3.org/2000/svg" xmlns:xlink="http://www.w3.org/1999/xlink" x="0px" y="0px"
	 viewBox="0 0 32 32" style="enable-background:new 0 0 32 32;" xml:space="preserve">
<style type="text/css">
	.st0{fill:none;stroke:#000000;stroke-width:2;stroke-linecap:round;stroke-linejoin:round;stroke-miterlimit:10;}
	.st1{fill:none;stroke:#000000;stroke-width:2;stroke-linecap:round;stroke-linejoin:round;}
	.st2{fill:none;stroke:#000000;stroke-width:2;stroke-linecap:round;stroke-linejoin:round;stroke-dasharray:6,6;}
	.st3{fill:none;stroke:#000000;stroke-width:2;stroke-linecap:round;stroke-linejoin:round;stroke-dasharray:4,4;}
	.st4{fill:none;stroke:#000000;stroke-width:2;stroke-linecap:round;}
	.st5{fill:none;stroke:#000000;stroke-width:2;stroke-linecap:round;stroke-dasharray:3.1081,3.1081;}
	
		.st6{fill:none;stroke:#000000;stroke-width:2;stroke-linecap:round;stroke-linejoin:round;stroke-miterlimit:10;stroke-dasharray:4,3;}
</style>
<path class="st0" d="M16.9,14c-1.8,0-3.3,1.4-3.3,3.1v0.7c0,1.1-0.6,1.9-1.6,2.2l0,0h1.6l3.1,0c1.8,0,3.4-1.4,3.3-3.1
	C20,15.3,18.6,14,16.9,14z"/>
<path class="st0" d="M20.3,11.5C18.9,11.2,17.5,11,16,11c-7.2,0-13,4-13,9c0,1,0.2,2,0.7,2.9c1,2,3.6,2.6,5.4,1.3l0,0
	c2.4-1.7,5.8,0,5.8,3V29c0.4,0,0.7,0,1.1,0c7.2,0,13-4,13-9c0-2.2-1.1-4.2-2.9-5.7"/>
<path class="st0" d="M17.4,14.1l9.8-8.8c0.4-0.4,1.1-0.4,1.5,0l0,0c0.4,0.4,0.4,1,0,1.4L20,16"/>
</svg>
